<?xml version="1.0" encoding="UTF-8"?>
<svg xmlns="http://www.w3.org/2000/svg" xmlns:xlink="http://www.w3.org/1999/xlink" width="30px" height="30px" viewBox="0 0 30 30" version="1.1">
<g id="surface1">
<path style=" stroke:none;fill-rule:nonzero;fill:rgb(0%,0%,0%);fill-opacity:1;" d="M 14.890625 16.164062 C 14.921875 16.164062 14.953125 16.164062 14.992188 16.164062 C 15.003906 16.164062 15.015625 16.164062 15.027344 16.164062 C 15.046875 16.164062 15.070312 16.164062 15.089844 16.164062 C 16.910156 16.132812 18.382812 15.492188 19.46875 14.269531 C 21.863281 11.574219 21.464844 6.953125 21.421875 6.511719 C 21.265625 3.199219 19.699219 1.617188 18.40625 0.875 C 17.445312 0.324219 16.320312 0.0234375 15.066406 0 L 15.023438 0 C 15.015625 0 15.003906 0 14.996094 0 L 14.960938 0 C 14.269531 0 12.914062 0.113281 11.617188 0.851562 C 10.3125 1.589844 8.722656 3.175781 8.566406 6.511719 C 8.523438 6.953125 8.125 11.574219 10.519531 14.269531 C 11.597656 15.492188 13.070312 16.132812 14.890625 16.164062 Z M 10.226562 6.664062 C 10.226562 6.648438 10.230469 6.628906 10.230469 6.617188 C 10.4375 2.160156 13.597656 1.683594 14.953125 1.683594 L 14.976562 1.683594 C 14.992188 1.683594 15.007812 1.683594 15.027344 1.683594 C 16.707031 1.722656 19.558594 2.402344 19.75 6.617188 C 19.75 6.636719 19.75 6.652344 19.753906 6.664062 C 19.761719 6.710938 20.195312 10.933594 18.222656 13.15625 C 17.4375 14.039062 16.394531 14.476562 15.023438 14.488281 C 15.007812 14.488281 15.003906 14.488281 14.992188 14.488281 C 14.976562 14.488281 14.972656 14.488281 14.960938 14.488281 C 13.59375 14.476562 12.542969 14.039062 11.765625 13.15625 C 9.796875 10.945312 10.21875 6.703125 10.226562 6.664062 Z M 10.226562 6.664062 "/>
<path style=" stroke:none;fill-rule:nonzero;fill:rgb(0%,0%,0%);fill-opacity:1;" d="M 27.757812 23.832031 C 27.757812 23.824219 27.757812 23.820312 27.757812 23.8125 C 27.757812 23.761719 27.75 23.714844 27.75 23.65625 C 27.714844 22.425781 27.632812 19.550781 24.9375 18.632812 C 24.917969 18.625 24.894531 18.617188 24.875 18.613281 C 22.074219 17.898438 19.742188 16.28125 19.71875 16.265625 C 19.339844 15.996094 18.816406 16.089844 18.550781 16.46875 C 18.285156 16.847656 18.375 17.371094 18.753906 17.636719 C 18.859375 17.710938 21.332031 19.433594 24.425781 20.226562 C 25.875 20.742188 26.035156 22.289062 26.078125 23.707031 C 26.078125 23.761719 26.078125 23.8125 26.085938 23.863281 C 26.09375 24.421875 26.054688 25.285156 25.957031 25.78125 C 24.949219 26.351562 21.003906 28.328125 15.003906 28.328125 C 9.027344 28.328125 5.058594 26.347656 4.042969 25.777344 C 3.945312 25.277344 3.902344 24.414062 3.914062 23.855469 C 3.914062 23.804688 3.921875 23.757812 3.921875 23.699219 C 3.964844 22.285156 4.125 20.738281 5.574219 20.222656 C 8.667969 19.425781 11.140625 17.699219 11.246094 17.632812 C 11.625 17.363281 11.714844 16.84375 11.449219 16.464844 C 11.183594 16.085938 10.660156 15.992188 10.28125 16.257812 C 10.257812 16.277344 7.941406 17.890625 5.125 18.605469 C 5.101562 18.613281 5.082031 18.617188 5.0625 18.625 C 2.367188 19.550781 2.285156 22.425781 2.25 23.652344 C 2.25 23.707031 2.25 23.757812 2.242188 23.804688 C 2.242188 23.8125 2.242188 23.820312 2.242188 23.824219 C 2.238281 24.148438 2.230469 25.804688 2.558594 26.640625 C 2.621094 26.800781 2.734375 26.9375 2.882812 27.03125 C 3.070312 27.15625 7.535156 30 15.007812 30 C 22.484375 30 26.949219 27.148438 27.136719 27.03125 C 27.277344 26.9375 27.398438 26.800781 27.460938 26.640625 C 27.769531 25.8125 27.761719 24.152344 27.757812 23.832031 Z M 27.757812 23.832031 "/>
</g>
</svg>
