<?xml version="1.0" encoding="UTF-8"?>
<svg xmlns="http://www.w3.org/2000/svg" xmlns:xlink="http://www.w3.org/1999/xlink" width="30px" height="30px" viewBox="0 0 30 30" version="1.1">
<defs>
<filter id="alpha" filterUnits="objectBoundingBox" x="0%" y="0%" width="100%" height="100%">
  <feColorMatrix type="matrix" in="SourceGraphic" values="0 0 0 0 1 0 0 0 0 1 0 0 0 0 1 0 0 0 1 0"/>
</filter>
<mask id="mask0">
  <g filter="url(#alpha)">
<rect x="0" y="0" width="30" height="30" style="fill:rgb(0%,0%,0%);fill-opacity:0.2;stroke:none;"/>
  </g>
</mask>
<clipPath id="clip1">
  <rect x="0" y="0" width="30" height="30"/>
</clipPath>
<g id="surface5" clip-path="url(#clip1)">
<path style=" stroke:none;fill-rule:nonzero;fill:rgb(1.960784%,1.960784%,1.960784%);fill-opacity:1;" d="M 17.617188 4.878906 C 17.617188 6.3125 16.457031 7.46875 15.027344 7.46875 C 13.597656 7.46875 12.4375 6.3125 12.4375 4.878906 C 12.4375 3.449219 13.597656 2.289062 15.027344 2.289062 C 16.457031 2.289062 17.617188 3.449219 17.617188 4.878906 Z M 17.617188 4.878906 "/>
</g>
<mask id="mask1">
  <g filter="url(#alpha)">
<rect x="0" y="0" width="30" height="30" style="fill:rgb(0%,0%,0%);fill-opacity:0.2;stroke:none;"/>
  </g>
</mask>
<clipPath id="clip2">
  <rect x="0" y="0" width="30" height="30"/>
</clipPath>
<g id="surface8" clip-path="url(#clip2)">
<path style=" stroke:none;fill-rule:nonzero;fill:rgb(0%,0%,0%);fill-opacity:1;" d="M 19.867188 20.574219 C 19.769531 20.683594 19.671875 20.789062 19.570312 20.890625 C 19.34375 21.121094 19.097656 21.332031 18.839844 21.523438 C 18.5 21.78125 18.132812 21.988281 17.738281 22.148438 C 17.492188 22.25 17.234375 22.324219 16.972656 22.375 C 16.742188 22.421875 16.503906 22.441406 16.269531 22.4375 C 15.804688 22.429688 15.347656 22.332031 14.921875 22.15625 L 14.84375 22.125 C 14.503906 21.980469 14.183594 21.796875 13.882812 21.578125 C 13.320312 21.15625 12.824219 20.65625 12.410156 20.085938 C 12.34375 19.996094 12.28125 19.90625 12.21875 19.8125 C 12.230469 19.769531 12.242188 19.730469 12.253906 19.6875 C 12.296875 19.53125 12.332031 19.375 12.355469 19.21875 C 12.425781 19.273438 12.496094 19.328125 12.566406 19.378906 C 12.753906 19.515625 12.953125 19.640625 13.160156 19.75 C 13.179688 19.761719 13.199219 19.773438 13.222656 19.785156 C 13.242188 19.792969 13.269531 19.808594 13.296875 19.820312 L 13.382812 19.863281 L 13.433594 19.886719 C 13.445312 19.894531 13.460938 19.902344 13.476562 19.90625 L 13.53125 19.929688 L 13.578125 19.949219 C 13.585938 19.953125 13.597656 19.957031 13.605469 19.960938 C 13.625 19.96875 13.648438 19.976562 13.667969 19.984375 C 13.6875 19.992188 13.71875 20.003906 13.746094 20.011719 C 13.777344 20.023438 13.800781 20.035156 13.828125 20.039062 L 13.847656 20.046875 C 13.867188 20.046875 13.886719 20.0625 13.90625 20.066406 C 13.9375 20.078125 13.964844 20.085938 13.996094 20.09375 C 14.011719 20.097656 14.023438 20.101562 14.039062 20.105469 L 14.117188 20.128906 C 14.292969 20.171875 14.46875 20.203125 14.644531 20.21875 C 14.664062 20.222656 14.683594 20.222656 14.703125 20.222656 C 14.714844 20.226562 14.726562 20.226562 14.738281 20.222656 C 14.761719 20.222656 14.785156 20.222656 14.8125 20.222656 C 14.835938 20.222656 14.851562 20.222656 14.875 20.230469 L 15.011719 20.230469 C 15.394531 20.226562 15.777344 20.164062 16.140625 20.042969 L 16.148438 20.042969 L 16.191406 20.027344 C 16.269531 20.003906 16.34375 19.976562 16.417969 19.945312 L 16.4375 19.9375 L 16.535156 19.894531 C 16.542969 19.894531 16.550781 19.886719 16.5625 19.886719 C 16.898438 19.730469 17.21875 19.542969 17.519531 19.320312 L 17.707031 19.175781 C 17.742188 19.332031 17.785156 19.503906 17.839844 19.683594 C 17.886719 19.84375 17.941406 19.992188 17.992188 20.132812 L 18.25 20.179688 L 18.375 20.203125 C 18.402344 20.210938 18.433594 20.214844 18.46875 20.222656 C 18.488281 20.226562 18.507812 20.230469 18.53125 20.234375 C 18.6875 20.269531 18.84375 20.300781 19 20.339844 C 19.246094 20.398438 19.488281 20.457031 19.726562 20.53125 Z M 19.867188 20.574219 "/>
</g>
<mask id="mask2">
  <g filter="url(#alpha)">
<rect x="0" y="0" width="30" height="30" style="fill:rgb(0%,0%,0%);fill-opacity:0.301961;stroke:none;"/>
  </g>
</mask>
<clipPath id="clip3">
  <rect x="0" y="0" width="30" height="30"/>
</clipPath>
<g id="surface11" clip-path="url(#clip3)">
<path style=" stroke:none;fill-rule:nonzero;fill:rgb(0%,0%,0%);fill-opacity:1;" d="M 21.789062 14.042969 C 21.769531 14.648438 21.382812 15.253906 20.953125 15.484375 C 20.898438 15.511719 20.835938 15.535156 20.773438 15.550781 L 20.757812 15.550781 C 20.679688 15.570312 20.601562 15.570312 20.523438 15.558594 C 20.441406 15.542969 20.359375 15.507812 20.289062 15.457031 L 20.257812 15.433594 C 20.210938 15.394531 20.167969 15.351562 20.125 15.304688 C 19.816406 14.929688 19.691406 14.226562 19.898438 13.664062 C 19.980469 13.445312 20.109375 13.246094 20.273438 13.078125 C 20.375 12.972656 20.5 12.886719 20.636719 12.824219 C 20.683594 12.804688 20.734375 12.789062 20.785156 12.777344 C 20.878906 12.757812 20.972656 12.757812 21.0625 12.777344 C 21.074219 12.777344 21.089844 12.777344 21.101562 12.789062 C 21.582031 12.917969 21.804688 13.554688 21.789062 14.042969 Z M 21.789062 14.042969 "/>
</g>
<mask id="mask3">
  <g filter="url(#alpha)">
<rect x="0" y="0" width="30" height="30" style="fill:rgb(0%,0%,0%);fill-opacity:0.2;stroke:none;"/>
  </g>
</mask>
<clipPath id="clip4">
  <rect x="0" y="0" width="30" height="30"/>
</clipPath>
<g id="surface14" clip-path="url(#clip4)">
<path style=" stroke:none;fill-rule:nonzero;fill:rgb(0%,0%,0%);fill-opacity:1;" d="M 18.976562 13.15625 C 18.402344 13.140625 17.488281 12.652344 16.984375 12.308594 C 15.496094 11.300781 14.34375 9.378906 13.511719 9.34375 C 13.421875 9.339844 13.332031 9.351562 13.25 9.382812 C 12.871094 9.523438 12.742188 10.011719 12.609375 10.488281 C 12.445312 11.074219 12.335938 11.457031 12.257812 11.703125 C 12.25 11.03125 12.238281 10.304688 12.640625 9.265625 C 12.757812 8.960938 12.914062 8.644531 13.21875 8.53125 C 13.367188 8.476562 13.851562 8.359375 15.082031 9.492188 C 15.40625 9.785156 15.703125 10.105469 15.96875 10.449219 C 16.96875 11.757812 16.976562 11.855469 17.492188 12.308594 C 18.214844 12.957031 18.65625 12.921875 18.976562 13.15625 Z M 18.976562 13.15625 "/>
</g>
</defs>
<g id="surface1">
<path style=" stroke:none;fill-rule:nonzero;fill:rgb(51.764706%,81.568627%,96.862745%);fill-opacity:1;" d="M 29.199219 14.96875 C 29.203125 18.296875 28.03125 21.519531 25.886719 24.066406 C 25.546875 24.464844 25.1875 24.847656 24.808594 25.210938 L 5.355469 25.210938 C 4.984375 24.886719 4.632812 24.539062 4.304688 24.171875 C 4.277344 24.140625 4.246094 24.105469 4.210938 24.0625 C 3.398438 23.09375 0.769531 19.660156 0.90625 14.96875 C 1.09375 8.460938 6.5625 0.820312 15.050781 0.820312 C 22.863281 0.820312 29.199219 7.152344 29.199219 14.96875 Z M 29.199219 14.96875 "/>
<path style=" stroke:none;fill-rule:nonzero;fill:rgb(17.647059%,17.647059%,17.647059%);fill-opacity:1;" d="M 17.617188 4.878906 C 17.617188 6.3125 16.457031 7.46875 15.027344 7.46875 C 13.597656 7.46875 12.4375 6.3125 12.4375 4.878906 C 12.4375 3.449219 13.597656 2.289062 15.027344 2.289062 C 16.457031 2.289062 17.617188 3.449219 17.617188 4.878906 Z M 17.617188 4.878906 "/>
<use xlink:href="#surface5" mask="url(#mask0)"/>
<path style=" stroke:none;fill-rule:nonzero;fill:rgb(66.666667%,22.352941%,17.647059%);fill-opacity:1;" d="M 25.882812 24.066406 C 24.890625 25.253906 23.707031 26.269531 22.382812 27.070312 C 20.175781 28.414062 17.636719 29.125 15.050781 29.117188 C 12.039062 29.117188 9.523438 28.070312 7.683594 26.9375 C 6.859375 26.433594 6.082031 25.855469 5.359375 25.21875 C 4.988281 24.894531 4.636719 24.546875 4.3125 24.179688 C 4.28125 24.148438 4.25 24.109375 4.214844 24.0625 C 5.082031 23.191406 6.070312 22.449219 7.148438 21.859375 C 8.164062 21.296875 9.242188 20.851562 10.363281 20.535156 C 11.917969 21.910156 13.472656 23.285156 15.023438 24.65625 C 16.59375 23.28125 18.164062 21.910156 19.730469 20.535156 C 19.765625 20.546875 19.796875 20.550781 19.832031 20.5625 C 19.84375 20.566406 19.851562 20.570312 19.863281 20.574219 C 20.933594 20.886719 21.964844 21.316406 22.941406 21.855469 C 24.019531 22.449219 25.011719 23.195312 25.882812 24.066406 Z M 25.882812 24.066406 "/>
<path style=" stroke:none;fill-rule:nonzero;fill:rgb(48.627451%,12.941176%,10.196078%);fill-opacity:1;" d="M 19.734375 20.535156 C 18.167969 21.910156 16.597656 23.285156 15.027344 24.65625 C 13.472656 23.28125 11.917969 21.910156 10.363281 20.535156 C 10.597656 20.441406 10.84375 20.378906 11.09375 20.34375 C 12.402344 21.46875 13.714844 22.59375 15.023438 23.714844 C 16.351562 22.589844 17.679688 21.464844 19.007812 20.34375 C 19.257812 20.378906 19.5 20.445312 19.734375 20.535156 Z M 19.734375 20.535156 "/>
<path style=" stroke:none;fill-rule:nonzero;fill:rgb(89.803922%,60%,45.098039%);fill-opacity:1;" d="M 19.003906 20.34375 C 17.675781 21.464844 16.347656 22.589844 15.019531 23.714844 C 13.714844 22.59375 12.40625 21.46875 11.09375 20.34375 C 11.261719 20.304688 11.4375 20.265625 11.617188 20.226562 C 11.792969 20.1875 11.941406 20.164062 12.101562 20.136719 C 12.179688 19.941406 12.246094 19.742188 12.292969 19.535156 C 12.320312 19.417969 12.339844 19.316406 12.355469 19.214844 C 12.515625 19.347656 12.6875 19.464844 12.863281 19.574219 C 13.03125 19.679688 13.203125 19.773438 13.382812 19.859375 C 13.875 20.085938 14.410156 20.210938 14.953125 20.238281 C 15.558594 20.222656 16.152344 20.085938 16.699219 19.828125 C 16.894531 19.730469 17.085938 19.621094 17.273438 19.5 C 17.449219 19.382812 17.597656 19.265625 17.710938 19.179688 C 17.742188 19.328125 17.785156 19.488281 17.835938 19.648438 C 17.886719 19.808594 17.9375 19.984375 17.996094 20.132812 C 18.136719 20.15625 18.273438 20.179688 18.421875 20.210938 C 18.621094 20.253906 18.816406 20.296875 19.003906 20.34375 Z M 19.003906 20.34375 "/>
<use xlink:href="#surface8" mask="url(#mask1)"/>
<path style=" stroke:none;fill-rule:nonzero;fill:rgb(89.803922%,60%,45.098039%);fill-opacity:1;" d="M 21.789062 14.042969 C 21.769531 14.644531 21.386719 15.257812 20.957031 15.480469 C 20.898438 15.511719 20.835938 15.535156 20.773438 15.550781 L 20.757812 15.550781 C 20.683594 15.570312 20.601562 15.570312 20.523438 15.558594 C 20.441406 15.542969 20.359375 15.507812 20.289062 15.457031 C 20.277344 15.449219 20.265625 15.441406 20.257812 15.429688 C 20.207031 15.394531 20.164062 15.351562 20.125 15.300781 C 19.816406 14.929688 19.691406 14.226562 19.890625 13.660156 C 19.976562 13.441406 20.101562 13.242188 20.265625 13.074219 C 20.40625 12.925781 20.582031 12.820312 20.78125 12.773438 C 20.871094 12.753906 20.964844 12.753906 21.054688 12.773438 C 21.570312 12.882812 21.804688 13.539062 21.789062 14.042969 Z M 21.789062 14.042969 "/>
<use xlink:href="#surface11" mask="url(#mask2)"/>
<path style=" stroke:none;fill-rule:nonzero;fill:rgb(89.803922%,60%,45.098039%);fill-opacity:1;" d="M 9.96875 15.308594 C 9.921875 15.363281 9.867188 15.414062 9.808594 15.460938 C 9.671875 15.558594 9.5 15.59375 9.339844 15.554688 L 9.324219 15.554688 C 9.261719 15.539062 9.199219 15.515625 9.140625 15.484375 C 8.710938 15.261719 8.328125 14.648438 8.308594 14.046875 C 8.292969 13.542969 8.527344 12.886719 9.039062 12.785156 C 9.332031 12.726562 9.609375 12.867188 9.828125 13.085938 C 9.992188 13.253906 10.121094 13.453125 10.203125 13.671875 C 10.40625 14.230469 10.28125 14.933594 9.96875 15.308594 Z M 9.96875 15.308594 "/>
<path style=" stroke:none;fill-rule:nonzero;fill:rgb(89.803922%,60%,45.098039%);fill-opacity:1;" d="M 20.78125 12.785156 C 20.78125 12.828125 20.78125 12.878906 20.773438 12.925781 C 20.71875 13.78125 20.542969 14.628906 20.25 15.433594 C 19.710938 16.957031 18.804688 18.300781 17.710938 19.183594 L 17.523438 19.332031 C 17.222656 19.550781 16.902344 19.742188 16.5625 19.894531 C 16.554688 19.894531 16.546875 19.902344 16.539062 19.90625 L 16.441406 19.945312 L 16.421875 19.957031 C 16.34375 19.984375 16.273438 20.015625 16.195312 20.039062 L 16.152344 20.054688 L 16.144531 20.054688 C 15.78125 20.175781 15.398438 20.238281 15.015625 20.238281 L 14.882812 20.238281 C 14.859375 20.238281 14.839844 20.238281 14.820312 20.234375 C 14.800781 20.226562 14.773438 20.234375 14.746094 20.234375 C 14.734375 20.234375 14.722656 20.234375 14.710938 20.234375 C 14.691406 20.234375 14.671875 20.230469 14.65625 20.226562 C 14.476562 20.210938 14.300781 20.179688 14.125 20.136719 L 14.046875 20.113281 C 14.03125 20.109375 14.019531 20.105469 14.003906 20.101562 C 13.976562 20.097656 13.945312 20.085938 13.914062 20.074219 C 13.894531 20.074219 13.875 20.0625 13.855469 20.058594 L 13.828125 20.039062 C 13.800781 20.03125 13.773438 20.023438 13.746094 20.011719 C 13.71875 20 13.691406 19.992188 13.667969 19.984375 C 13.640625 19.972656 13.625 19.96875 13.605469 19.957031 C 13.597656 19.957031 13.585938 19.953125 13.578125 19.949219 L 13.53125 19.925781 L 13.476562 19.90625 C 13.460938 19.90625 13.449219 19.890625 13.433594 19.882812 L 13.382812 19.859375 L 13.296875 19.820312 C 13.269531 19.808594 13.242188 19.796875 13.222656 19.78125 C 13.199219 19.769531 13.179688 19.757812 13.160156 19.75 C 12.953125 19.640625 12.753906 19.515625 12.566406 19.378906 C 12.496094 19.328125 12.425781 19.273438 12.359375 19.214844 C 12.175781 19.074219 12.003906 18.921875 11.84375 18.753906 C 11.671875 18.589844 11.511719 18.414062 11.363281 18.230469 C 10.660156 17.367188 10.125 16.382812 9.777344 15.324219 C 9.550781 14.636719 9.402344 13.925781 9.335938 13.203125 C 9.324219 13.085938 9.316406 12.96875 9.3125 12.847656 C 9.289062 12.425781 9.304688 12.003906 9.351562 11.582031 C 9.367188 11.410156 9.394531 11.246094 9.425781 11.074219 C 9.460938 10.867188 9.507812 10.660156 9.566406 10.457031 C 9.703125 9.953125 9.882812 9.464844 10.105469 8.996094 C 10.597656 7.964844 11.308594 6.992188 12.195312 6.300781 C 12.996094 5.648438 13.996094 5.285156 15.03125 5.273438 C 16.761719 5.265625 18.195312 6.28125 19.191406 7.648438 C 19.597656 8.203125 19.933594 8.808594 20.191406 9.445312 C 20.257812 9.605469 20.320312 9.765625 20.375 9.929688 C 20.503906 10.304688 20.601562 10.683594 20.675781 11.074219 C 20.703125 11.234375 20.726562 11.402344 20.746094 11.566406 C 20.789062 11.972656 20.800781 12.378906 20.78125 12.785156 Z M 20.78125 12.785156 "/>
<use xlink:href="#surface14" mask="url(#mask3)"/>
<path style=" stroke:none;fill-rule:nonzero;fill:rgb(17.647059%,17.647059%,17.647059%);fill-opacity:1;" d="M 22.707031 19.96875 C 22.65625 20.113281 21.640625 20.074219 20.753906 19.519531 C 19.726562 18.871094 18.957031 17.570312 18.914062 16.210938 C 18.871094 14.785156 19.65625 14.21875 19.214844 13.433594 C 19.15625 13.328125 19.078125 13.230469 18.980469 13.15625 C 18.664062 12.921875 18.21875 12.957031 17.492188 12.308594 C 16.984375 11.859375 16.976562 11.757812 15.96875 10.449219 C 15.703125 10.105469 15.40625 9.785156 15.085938 9.492188 C 13.855469 8.355469 13.371094 8.472656 13.222656 8.53125 C 12.917969 8.648438 12.765625 8.957031 12.644531 9.265625 C 12.242188 10.300781 12.253906 11.03125 12.261719 11.699219 C 12.261719 12.269531 12.269531 12.796875 12.003906 13.433594 C 11.449219 14.78125 10.453125 14.820312 10.398438 16.011719 C 10.363281 16.683594 10.671875 16.832031 10.65625 17.710938 C 10.65625 18.003906 10.625 19.097656 9.9375 19.835938 C 8.789062 21.0625 6.480469 20.5625 6.449219 20.304688 C 6.417969 20.050781 8.585938 20.070312 9.003906 18.953125 C 9.34375 18.042969 8.066406 17.355469 8.253906 15.796875 C 8.34375 15.003906 8.707031 14.941406 9.003906 13.960938 C 9.441406 12.507812 8.855469 11.96875 8.957031 10.621094 C 9.128906 8.277344 11.164062 6.285156 12.984375 5.511719 C 13.546875 5.269531 14.140625 5.117188 14.75 5.058594 C 17.171875 4.855469 18.996094 6.335938 19.671875 6.976562 C 20.160156 7.445312 21.386719 8.609375 21.585938 10.316406 C 21.667969 11.082031 21.628906 11.855469 21.46875 12.609375 C 21.148438 14.367188 20.574219 14.566406 20.457031 15.988281 C 20.40625 16.554688 20.316406 17.652344 20.945312 18.578125 C 21.625 19.582031 22.765625 19.8125 22.707031 19.96875 Z M 22.707031 19.96875 "/>
</g>
</svg>
