<?xml version="1.0" encoding="UTF-8"?>
<svg xmlns="http://www.w3.org/2000/svg" xmlns:xlink="http://www.w3.org/1999/xlink" width="30px" height="30px" viewBox="0 0 30 30" version="1.1">
<defs>
<filter id="alpha" filterUnits="objectBoundingBox" x="0%" y="0%" width="100%" height="100%">
  <feColorMatrix type="matrix" in="SourceGraphic" values="0 0 0 0 1 0 0 0 0 1 0 0 0 0 1 0 0 0 1 0"/>
</filter>
<mask id="mask0">
  <g filter="url(#alpha)">
<rect x="0" y="0" width="30" height="30" style="fill:rgb(0%,0%,0%);fill-opacity:0.2;stroke:none;"/>
  </g>
</mask>
<clipPath id="clip1">
  <rect x="0" y="0" width="30" height="30"/>
</clipPath>
<g id="surface5" clip-path="url(#clip1)">
<path style=" stroke:none;fill-rule:nonzero;fill:rgb(0%,0%,0%);fill-opacity:1;" d="M 19.855469 20.542969 C 19.761719 20.65625 19.660156 20.757812 19.554688 20.863281 C 19.332031 21.089844 19.085938 21.300781 18.828125 21.496094 C 18.492188 21.75 18.121094 21.957031 17.730469 22.117188 C 17.480469 22.21875 17.226562 22.296875 16.964844 22.34375 C 16.730469 22.390625 16.496094 22.410156 16.261719 22.40625 C 15.796875 22.398438 15.34375 22.300781 14.914062 22.128906 C 14.890625 22.117188 14.867188 22.105469 14.84375 22.09375 C 14.5 21.949219 14.175781 21.765625 13.878906 21.546875 C 13.316406 21.128906 12.820312 20.625 12.410156 20.058594 C 12.34375 19.96875 12.277344 19.878906 12.214844 19.785156 C 12.226562 19.746094 12.242188 19.699219 12.253906 19.660156 C 12.300781 19.492188 12.332031 19.332031 12.355469 19.191406 C 12.421875 19.246094 12.492188 19.296875 12.5625 19.351562 C 12.75 19.488281 12.945312 19.609375 13.148438 19.722656 L 13.210938 19.753906 L 13.285156 19.792969 L 13.371094 19.832031 C 13.390625 19.839844 13.40625 19.847656 13.421875 19.855469 L 13.464844 19.878906 L 13.519531 19.898438 C 13.535156 19.90625 13.554688 19.914062 13.570312 19.921875 L 13.59375 19.929688 L 13.65625 19.953125 L 13.734375 19.984375 L 13.816406 20.015625 L 13.835938 20.015625 L 13.894531 20.035156 L 13.984375 20.0625 L 14.027344 20.074219 L 14.109375 20.09375 C 14.28125 20.140625 14.457031 20.171875 14.632812 20.1875 C 14.652344 20.1875 14.667969 20.1875 14.6875 20.1875 L 15 20.1875 C 15.382812 20.183594 15.761719 20.121094 16.125 20 C 16.128906 20 16.132812 20 16.132812 20 C 16.148438 20 16.164062 19.992188 16.175781 19.988281 C 16.253906 19.960938 16.328125 19.933594 16.402344 19.902344 L 16.425781 19.894531 C 16.457031 19.882812 16.484375 19.871094 16.519531 19.855469 L 16.546875 19.84375 C 16.882812 19.691406 17.203125 19.5 17.5 19.277344 C 17.566406 19.234375 17.628906 19.183594 17.6875 19.132812 C 17.726562 19.292969 17.769531 19.464844 17.824219 19.640625 C 17.875 19.816406 17.921875 19.949219 17.972656 20.089844 C 18.019531 20.097656 18.058594 20.105469 18.101562 20.113281 L 18.226562 20.136719 L 18.355469 20.160156 L 18.449219 20.179688 C 18.46875 20.183594 18.488281 20.1875 18.507812 20.191406 C 18.667969 20.222656 18.824219 20.257812 18.976562 20.296875 C 19.222656 20.351562 19.46875 20.414062 19.707031 20.488281 Z M 19.855469 20.542969 "/>
</g>
<mask id="mask1">
  <g filter="url(#alpha)">
<rect x="0" y="0" width="30" height="30" style="fill:rgb(0%,0%,0%);fill-opacity:0.301961;stroke:none;"/>
  </g>
</mask>
<clipPath id="clip2">
  <rect x="0" y="0" width="30" height="30"/>
</clipPath>
<g id="surface8" clip-path="url(#clip2)">
<path style=" stroke:none;fill-rule:nonzero;fill:rgb(0%,0%,0%);fill-opacity:1;" d="M 21.773438 14.023438 C 21.757812 14.625 21.371094 15.234375 20.941406 15.460938 C 20.882812 15.492188 20.820312 15.515625 20.757812 15.53125 L 20.746094 15.53125 C 20.667969 15.546875 20.589844 15.550781 20.511719 15.535156 C 20.425781 15.519531 20.347656 15.484375 20.277344 15.433594 L 20.242188 15.410156 C 20.195312 15.371094 20.152344 15.328125 20.113281 15.28125 C 19.804688 14.910156 19.675781 14.207031 19.886719 13.648438 C 19.96875 13.429688 20.097656 13.230469 20.257812 13.0625 C 20.398438 12.914062 20.574219 12.808594 20.773438 12.761719 C 20.863281 12.742188 20.957031 12.742188 21.046875 12.761719 C 21.554688 12.867188 21.789062 13.523438 21.773438 14.023438 Z M 21.773438 14.023438 "/>
</g>
<mask id="mask2">
  <g filter="url(#alpha)">
<rect x="0" y="0" width="30" height="30" style="fill:rgb(0%,0%,0%);fill-opacity:0.2;stroke:none;"/>
  </g>
</mask>
<clipPath id="clip3">
  <rect x="0" y="0" width="30" height="30"/>
</clipPath>
<g id="surface11" clip-path="url(#clip3)">
<path style=" stroke:none;fill-rule:nonzero;fill:rgb(0%,0%,0%);fill-opacity:1;" d="M 21.429688 10.152344 C 21.308594 10.28125 21.175781 10.398438 21.035156 10.503906 C 21.023438 10.515625 20.96875 10.550781 20.902344 10.597656 C 20.785156 10.671875 20.667969 10.75 20.558594 10.820312 C 20.066406 11.117188 19.546875 11.367188 19.003906 11.5625 C 16.644531 12.410156 14.035156 12.222656 11.820312 11.046875 C 11.5625 10.90625 11.3125 10.75 11.070312 10.585938 C 10.988281 10.53125 10.90625 10.46875 10.828125 10.414062 C 10.613281 10.257812 10.410156 10.09375 10.214844 9.917969 C 10.121094 9.835938 10.03125 9.75 9.945312 9.664062 C 10.257812 9.898438 10.597656 10.089844 10.957031 10.242188 C 11.707031 10.570312 12.597656 10.816406 13.464844 11.0625 C 14.214844 11.28125 14.988281 11.398438 15.769531 11.40625 C 16.558594 11.410156 17.339844 11.292969 18.089844 11.054688 C 18.433594 10.945312 18.765625 10.808594 19.085938 10.640625 C 19.234375 10.566406 19.386719 10.484375 19.542969 10.398438 C 19.824219 10.25 20.097656 10.085938 20.363281 9.910156 C 20.671875 9.703125 20.96875 9.480469 21.25 9.238281 C 21.347656 9.535156 21.410156 9.839844 21.429688 10.152344 Z M 21.429688 10.152344 "/>
</g>
</defs>
<g id="surface1">
<path style=" stroke:none;fill-rule:nonzero;fill:rgb(51.764706%,81.568627%,96.862745%);fill-opacity:1;" d="M 29.171875 14.945312 C 29.175781 18.269531 28.003906 21.488281 25.863281 24.03125 C 25.527344 24.433594 25.167969 24.8125 24.789062 25.175781 L 5.367188 25.175781 C 5 24.851562 4.648438 24.507812 4.320312 24.140625 C 4.292969 24.109375 4.261719 24.070312 4.226562 24.023438 C 3.414062 23.054688 0.785156 19.628906 0.917969 14.941406 C 1.109375 8.453125 6.570312 0.820312 15.046875 0.820312 C 22.847656 0.820312 29.171875 7.144531 29.171875 14.945312 Z M 29.171875 14.945312 "/>
<path style=" stroke:none;fill-rule:nonzero;fill:rgb(66.666667%,22.352941%,17.647059%);fill-opacity:1;" d="M 25.863281 24.03125 C 25.527344 24.433594 25.167969 24.816406 24.789062 25.175781 C 22.164062 27.679688 18.671875 29.078125 15.046875 29.074219 C 10.453125 29.074219 7.011719 26.632812 5.367188 25.175781 C 5 24.851562 4.648438 24.507812 4.320312 24.140625 C 4.292969 24.109375 4.257812 24.070312 4.226562 24.023438 C 5.800781 22.4375 7.921875 21.210938 10.367188 20.507812 C 11.046875 22.207031 12.890625 23.425781 15.042969 23.425781 C 17.046875 23.425781 18.777344 22.371094 19.554688 20.863281 C 19.617188 20.746094 19.671875 20.628906 19.722656 20.503906 C 19.765625 20.519531 19.796875 20.523438 19.855469 20.542969 C 22.242188 21.25 24.316406 22.46875 25.863281 24.03125 Z M 25.863281 24.03125 "/>
<path style=" stroke:none;fill-rule:nonzero;fill:rgb(48.627451%,12.941176%,10.196078%);fill-opacity:1;" d="M 19.722656 20.507812 C 19.671875 20.625 19.617188 20.742188 19.554688 20.867188 C 18.777344 22.378906 17.046875 23.429688 15.042969 23.429688 C 12.890625 23.425781 11.046875 22.207031 10.367188 20.507812 L 10.671875 20.421875 C 10.683594 20.421875 10.691406 20.417969 10.699219 20.414062 C 10.699219 20.414062 10.90625 20.359375 11.09375 20.316406 C 11.828125 21.828125 13.363281 22.789062 15.042969 22.789062 C 16.722656 22.789062 18.257812 21.828125 18.992188 20.316406 C 19.242188 20.351562 19.488281 20.417969 19.722656 20.507812 Z M 19.722656 20.507812 "/>
<path style=" stroke:none;fill-rule:nonzero;fill:rgb(51.764706%,24.705882%,17.254902%);fill-opacity:1;" d="M 18.992188 20.316406 C 18.257812 21.828125 16.722656 22.789062 15.042969 22.789062 C 13.363281 22.789062 11.828125 21.828125 11.09375 20.316406 C 11.25 20.277344 11.410156 20.242188 11.5625 20.210938 L 11.679688 20.1875 C 11.703125 20.1875 11.722656 20.175781 11.742188 20.171875 C 11.761719 20.171875 11.808594 20.160156 11.839844 20.152344 L 11.980469 20.128906 C 12.011719 20.121094 12.050781 20.117188 12.085938 20.109375 L 12.09375 20.109375 C 12.136719 20.007812 12.175781 19.902344 12.210938 19.785156 C 12.226562 19.746094 12.238281 19.699219 12.25 19.660156 C 12.296875 19.492188 12.332031 19.332031 12.355469 19.191406 C 12.601562 19.394531 12.867188 19.574219 13.152344 19.722656 L 13.214844 19.753906 L 13.285156 19.792969 L 13.375 19.832031 C 13.390625 19.839844 13.410156 19.847656 13.425781 19.855469 L 13.46875 19.878906 L 13.523438 19.898438 C 13.539062 19.90625 13.554688 19.914062 13.574219 19.921875 L 13.597656 19.929688 C 13.617188 19.9375 13.636719 19.945312 13.660156 19.953125 L 13.738281 19.984375 L 13.820312 20.015625 L 13.839844 20.015625 L 13.898438 20.035156 L 13.988281 20.0625 L 14.03125 20.074219 L 14.113281 20.09375 C 14.285156 20.136719 14.460938 20.167969 14.636719 20.1875 C 14.652344 20.1875 14.671875 20.1875 14.691406 20.1875 L 15.003906 20.1875 C 15.386719 20.1875 15.765625 20.125 16.128906 20 C 16.132812 20 16.136719 20 16.136719 20 C 16.152344 20 16.164062 19.992188 16.179688 19.988281 C 16.269531 19.957031 16.351562 19.925781 16.425781 19.894531 L 16.523438 19.855469 L 16.550781 19.84375 C 16.964844 19.667969 17.351562 19.425781 17.691406 19.132812 C 17.726562 19.292969 17.773438 19.464844 17.828125 19.640625 C 17.878906 19.816406 17.925781 19.949219 17.976562 20.089844 C 18.023438 20.097656 18.0625 20.101562 18.105469 20.113281 L 18.230469 20.136719 L 18.359375 20.160156 L 18.449219 20.179688 C 18.472656 20.183594 18.492188 20.1875 18.511719 20.191406 C 18.679688 20.242188 18.835938 20.273438 18.992188 20.316406 Z M 18.992188 20.316406 "/>
<path style=" stroke:none;fill-rule:nonzero;fill:rgb(17.647059%,17.647059%,17.647059%);fill-opacity:1;" d="M 9.425781 11.054688 C 9.320312 11.640625 9.28125 12.234375 9.308594 12.824219 C 9.308594 12.941406 9.324219 13.058594 9.335938 13.175781 C 9.335938 13.21875 9.34375 13.265625 9.347656 13.308594 C 9.101562 13.179688 9.003906 12.613281 8.808594 11.539062 C 8.691406 10.859375 8.628906 10.519531 8.648438 10.144531 C 8.691406 9.574219 8.851562 9.015625 9.117188 8.503906 C 9.234375 8.933594 9.492188 9.3125 9.84375 9.585938 C 9.65625 10.0625 9.519531 10.554688 9.425781 11.054688 Z M 9.425781 11.054688 "/>
<path style=" stroke:none;fill-rule:nonzero;fill:rgb(17.647059%,17.647059%,17.647059%);fill-opacity:1;" d="M 21.269531 11.546875 C 21.175781 12.070312 21.105469 12.46875 21.027344 12.761719 C 20.945312 13.074219 20.855469 13.257812 20.722656 13.320312 C 20.746094 13.132812 20.757812 12.949219 20.769531 12.765625 C 20.792969 12.195312 20.757812 11.621094 20.660156 11.054688 C 20.589844 10.667969 20.488281 10.289062 20.359375 9.914062 C 20.359375 9.914062 20.359375 9.90625 20.359375 9.90625 C 20.671875 9.695312 20.972656 9.46875 21.257812 9.226562 C 21.351562 9.527344 21.410156 9.835938 21.433594 10.152344 C 21.453125 10.53125 21.390625 10.867188 21.269531 11.546875 Z M 21.269531 11.546875 "/>
<use xlink:href="#surface5" mask="url(#mask0)"/>
<path style=" stroke:none;fill-rule:nonzero;fill:rgb(51.764706%,24.705882%,17.254902%);fill-opacity:1;" d="M 21.773438 14.023438 C 21.757812 14.625 21.371094 15.234375 20.941406 15.460938 C 20.882812 15.488281 20.824219 15.511719 20.757812 15.53125 L 20.746094 15.53125 C 20.667969 15.546875 20.589844 15.550781 20.511719 15.535156 C 20.425781 15.519531 20.347656 15.484375 20.277344 15.433594 L 20.242188 15.410156 C 20.195312 15.371094 20.152344 15.328125 20.113281 15.28125 C 19.804688 14.910156 19.675781 14.207031 19.886719 13.648438 C 19.96875 13.429688 20.097656 13.230469 20.261719 13.0625 C 20.398438 12.914062 20.578125 12.808594 20.773438 12.761719 C 20.863281 12.742188 20.957031 12.742188 21.046875 12.761719 C 21.554688 12.867188 21.789062 13.523438 21.773438 14.023438 Z M 21.773438 14.023438 "/>
<use xlink:href="#surface8" mask="url(#mask1)"/>
<path style=" stroke:none;fill-rule:nonzero;fill:rgb(51.764706%,24.705882%,17.254902%);fill-opacity:1;" d="M 9.972656 15.285156 C 9.925781 15.34375 9.871094 15.394531 9.808594 15.4375 C 9.675781 15.535156 9.503906 15.570312 9.339844 15.535156 L 9.328125 15.535156 C 9.261719 15.515625 9.203125 15.492188 9.144531 15.464844 C 8.714844 15.238281 8.328125 14.628906 8.3125 14.027344 C 8.296875 13.527344 8.53125 12.871094 9.042969 12.769531 C 9.335938 12.710938 9.613281 12.851562 9.832031 13.070312 C 9.996094 13.238281 10.121094 13.4375 10.203125 13.65625 C 10.410156 14.210938 10.28125 14.914062 9.972656 15.285156 Z M 9.972656 15.285156 "/>
<path style=" stroke:none;fill-rule:nonzero;fill:rgb(51.764706%,24.705882%,17.254902%);fill-opacity:1;" d="M 20.769531 12.765625 C 20.757812 12.949219 20.746094 13.132812 20.722656 13.320312 C 20.644531 14.03125 20.480469 14.734375 20.242188 15.414062 C 19.699219 16.929688 18.792969 18.273438 17.703125 19.152344 C 17.640625 19.203125 17.578125 19.25 17.515625 19.296875 C 17.214844 19.519531 16.894531 19.707031 16.558594 19.863281 L 16.53125 19.871094 C 16.496094 19.890625 16.46875 19.902344 16.4375 19.914062 L 16.414062 19.921875 C 16.339844 19.953125 16.265625 19.980469 16.1875 20.007812 C 16.175781 20.011719 16.160156 20.015625 16.144531 20.019531 C 16.144531 20.019531 16.140625 20.019531 16.136719 20.019531 C 15.773438 20.140625 15.394531 20.203125 15.011719 20.207031 L 14.699219 20.207031 C 14.679688 20.207031 14.664062 20.207031 14.644531 20.207031 C 14.46875 20.1875 14.292969 20.160156 14.121094 20.113281 L 14.039062 20.09375 L 13.996094 20.082031 L 13.90625 20.054688 L 13.847656 20.035156 L 13.828125 20.035156 L 13.746094 20.003906 L 13.667969 19.972656 L 13.605469 19.949219 L 13.582031 19.9375 C 13.566406 19.929688 13.546875 19.925781 13.53125 19.917969 L 13.476562 19.894531 L 13.433594 19.875 C 13.417969 19.867188 13.402344 19.859375 13.382812 19.851562 L 13.296875 19.8125 L 13.222656 19.773438 L 13.160156 19.742188 C 12.957031 19.628906 12.761719 19.503906 12.574219 19.367188 C 12.503906 19.316406 12.433594 19.261719 12.367188 19.210938 C 12 18.910156 11.664062 18.574219 11.367188 18.203125 C 10.667969 17.339844 10.132812 16.355469 9.785156 15.300781 C 9.570312 14.65625 9.425781 13.992188 9.355469 13.316406 C 9.355469 13.273438 9.347656 13.226562 9.34375 13.183594 C 9.332031 13.066406 9.324219 12.949219 9.320312 12.832031 C 9.289062 12.238281 9.328125 11.644531 9.4375 11.0625 C 9.523438 10.558594 9.660156 10.0625 9.84375 9.585938 C 9.921875 9.382812 10.007812 9.179688 10.101562 8.980469 C 10.566406 7.980469 11.238281 7.089844 12.078125 6.378906 C 12.117188 6.347656 12.152344 6.320312 12.1875 6.289062 C 12.988281 5.640625 13.988281 5.277344 15.019531 5.261719 C 16.152344 5.261719 17.152344 5.691406 17.992188 6.375 C 18.4375 6.746094 18.835938 7.167969 19.175781 7.636719 C 19.582031 8.195312 19.917969 8.796875 20.175781 9.433594 C 20.238281 9.59375 20.300781 9.746094 20.355469 9.902344 C 20.355469 9.902344 20.355469 9.910156 20.355469 9.910156 C 20.484375 10.285156 20.582031 10.664062 20.652344 11.054688 C 20.753906 11.617188 20.792969 12.191406 20.769531 12.765625 Z M 20.769531 12.765625 "/>
<use xlink:href="#surface11" mask="url(#mask2)"/>
<path style=" stroke:none;fill-rule:nonzero;fill:rgb(17.647059%,17.647059%,17.647059%);fill-opacity:1;" d="M 23.25 6.71875 C 23.242188 7.367188 22.632812 7.960938 22.457031 8.125 C 22 8.558594 21.625 8.914062 21.253906 9.226562 L 21.246094 9.234375 C 20.964844 9.476562 20.667969 9.699219 20.359375 9.90625 C 20.09375 10.082031 19.820312 10.246094 19.539062 10.398438 C 19.382812 10.480469 19.230469 10.5625 19.078125 10.636719 C 18.761719 10.804688 18.429688 10.941406 18.085938 11.050781 C 17.335938 11.289062 16.550781 11.40625 15.765625 11.402344 C 14.984375 11.394531 14.210938 11.277344 13.460938 11.058594 C 12.59375 10.816406 11.703125 10.570312 10.953125 10.238281 C 10.59375 10.085938 10.253906 9.894531 9.9375 9.660156 L 9.84375 9.585938 C 9.492188 9.3125 9.238281 8.933594 9.121094 8.507812 C 8.847656 7.410156 9.644531 6.324219 9.765625 6.164062 C 10.144531 5.679688 10.644531 5.304688 11.210938 5.074219 C 12.292969 4.617188 12.792969 4.972656 15.148438 5.074219 C 17.234375 5.164062 18.28125 5.210938 19.269531 4.824219 C 19.667969 4.667969 20.414062 4.324219 20.546875 4.507812 C 20.652344 4.65625 20.347656 5.09375 20.273438 5.199219 C 20.003906 5.585938 19.777344 5.691406 19.8125 5.785156 C 19.875 5.933594 20.527344 5.863281 21.070312 5.703125 C 21.648438 5.535156 21.867188 5.332031 21.96875 5.429688 C 22.109375 5.5625 21.902344 6.121094 21.550781 6.496094 C 21.300781 6.769531 21.066406 6.839844 21.089844 6.9375 C 21.125 7.054688 21.574219 7.105469 21.992188 7 C 22.648438 6.835938 22.984375 6.355469 23.167969 6.476562 C 23.21875 6.5 23.253906 6.5625 23.25 6.71875 Z M 23.25 6.71875 "/>
</g>
</svg>
